<svg xmlns="http://www.w3.org/2000/svg" viewBox="0 0 16 16"><g id="Capa_1" data-name="Capa 1"><rect width="16" height="16"/></g><g id="Capa_2" data-name="Capa 2"><rect x="1.15" y="7.45" width="4.44" height="1.05" rx="0.39" fill="#fff"/><path d="M5.2,5.74a.39.39,0,0,1,.39.39v.28a.38.38,0,0,1-.39.38H1.54a.38.38,0,0,1-.39-.38V6.13a.39.39,0,0,1,.39-.39" transform="translate(0 0)" fill="#fff"/><rect x="1.15" y="9.14" width="4.44" height="1.05" rx="0.39" fill="#fff"/><path d="M1.81,5.74a.39.39,0,0,1,.39.39V9.8a.38.38,0,0,1-.39.39H1.54a.38.38,0,0,1-.39-.39V6.13a.39.39,0,0,1,.39-.39" transform="translate(0 0)" fill="#fff"/><rect x="6.17" y="7.45" width="2.12" height="1.05" rx="0.27" fill="#fff"/><path d="M14.46,5.75a.38.38,0,0,1,.39.39v.27a.39.39,0,0,1-.39.39H11a.39.39,0,0,1-.39-.39V6.14A.38.38,0,0,1,11,5.75" transform="translate(0 0)" fill="#179592"/><path d="M12.85,5.75a.39.39,0,0,1,.39.39V10a.21.21,0,0,1-.21.21h-.64a.2.2,0,0,1-.2-.21V6.14a.38.38,0,0,1,.39-.39" transform="translate(0 0)" fill="#179592"/><path d="M9.53,5.75a.39.39,0,0,1,.39.39V9.81a.4.4,0,0,1-.39.39H9.26a.39.39,0,0,1-.39-.39V6.14a.38.38,0,0,1,.39-.39" transform="translate(0 0)" fill="#179592"/></g></svg>